<?xml version="1.0" encoding="UTF-8"?>
<svg id="Layer_1" data-name="Layer 1" xmlns="http://www.w3.org/2000/svg" viewBox="0 0 740.25 99.65">
  <defs>
    <style>
      .cls-1 {
        fill: #ccc;
      }
    </style>
  </defs>
  <path class="cls-1" d="M298.86,32.5h11.59c4.48.03,7.85,1.95,10.09,5.75.8,1.28,1.31,2.62,1.52,4.02.17,1.4.25,3.82.25,7.27,0,3.66-.13,6.21-.39,7.66-.12.73-.3,1.39-.55,1.96-.26.56-.57,1.14-.93,1.75-.97,1.6-2.32,2.93-4.04,3.97-1.71,1.12-3.81,1.68-6.29,1.68h-11.25v-34.06ZM303.88,61.7h6c2.82,0,4.87-.99,6.14-2.97.56-.73.92-1.66,1.07-2.79.14-1.11.2-3.18.2-6.23s-.07-5.09-.2-6.37c-.18-1.28-.61-2.32-1.3-3.11-1.4-1.98-3.37-2.94-5.91-2.88h-6v24.35Z"/>
  <path class="cls-1" d="M714.86,47.82h11.77v6.93c-.06,3.41-1.2,6.26-3.41,8.56-2.23,2.29-5.03,3.46-8.4,3.52-2.6-.06-4.78-.72-6.52-1.96-1.77-1.2-3.06-2.58-3.86-4.16-.24-.51-.46-1-.66-1.47-.18-.48-.33-1.09-.45-1.82-.23-1.37-.34-4-.34-7.9s.11-6.6.34-7.94c.24-1.34.61-2.42,1.11-3.25.8-1.57,2.09-2.97,3.86-4.21,1.74-1.25,3.91-1.88,6.52-1.92,3.19.03,5.8,1,7.81,2.92,2.01,1.93,3.28,4.32,3.81,7.17h-5.32c-.41-1.38-1.15-2.55-2.23-3.52-1.12-.92-2.49-1.4-4.09-1.43-1.18.03-2.2.27-3.05.73-.86.47-1.56,1.05-2.09,1.76-.65.73-1.08,1.68-1.3,2.83-.24,1.22-.36,3.5-.36,6.86s.12,5.63.36,6.81c.21,1.19.65,2.15,1.3,2.88.53.7,1.23,1.27,2.09,1.71.85.52,1.87.77,3.05.77,1.96,0,3.57-.69,4.85-2.06,1.27-1.31,1.93-3.04,1.96-5.18v-1.78h-6.76v-4.85Z"/>
  <rect class="cls-1" x="334.83" y="49.03" width="355.77" height="1"/>
  <g>
    <path class="cls-1" d="M70.91,48.68h7.58v4.48c-.04,2.2-.77,4.05-2.19,5.54-1.43,1.48-3.24,2.24-5.41,2.28-1.68-.04-3.08-.46-4.2-1.27-1.14-.78-1.97-1.67-2.49-2.69-.16-.33-.3-.65-.42-.95-.12-.31-.21-.71-.29-1.18-.15-.89-.22-2.59-.22-5.11s.07-4.27.22-5.14c.16-.87.4-1.57.72-2.1.52-1.02,1.35-1.92,2.49-2.72,1.12-.81,2.52-1.22,4.2-1.24,2.06.02,3.73.65,5.03,1.89,1.3,1.25,2.12,2.79,2.46,4.64h-3.43c-.26-.89-.74-1.65-1.44-2.28-.72-.6-1.6-.91-2.64-.93-.76.02-1.42.18-1.96.47-.56.3-1.01.68-1.35,1.14-.42.47-.7,1.08-.83,1.83-.16.79-.23,2.27-.23,4.44s.08,3.64.23,4.41c.14.77.42,1.39.84,1.86.34.45.79.82,1.35,1.1.55.33,1.2.5,1.96.5,1.26,0,2.3-.44,3.12-1.33.82-.85,1.24-1.96,1.26-3.35v-1.15h-4.35v-3.14Z"/>
    <path class="cls-1" d="M94.55,51.17h-8.46v9.62h-3.23v-22.03h3.23v9.44h8.46v-9.44h3.23v22.03h-3.23v-9.62Z"/>
    <path class="cls-1" d="M102.18,49.78c0-2.56.07-4.28.22-5.15.16-.87.4-1.57.72-2.1.52-1.01,1.35-1.92,2.49-2.71,1.12-.8,2.52-1.21,4.2-1.23,1.7.02,3.11.43,4.24,1.24,1.12.79,1.93,1.7,2.43,2.72.36.53.61,1.23.75,2.1.13.87.19,2.58.19,5.14s-.06,4.22-.19,5.11c-.14.89-.39,1.6-.75,2.13-.5,1.02-1.31,1.91-2.43,2.69-1.13.81-2.54,1.23-4.24,1.27-1.68-.04-3.08-.46-4.2-1.27-1.14-.78-1.97-1.67-2.49-2.69-.16-.33-.3-.65-.42-.95-.12-.31-.21-.71-.29-1.18-.15-.89-.22-2.59-.22-5.11ZM105.41,49.78c0,2.17.08,3.64.23,4.41.14.77.42,1.39.84,1.86.34.45.79.82,1.35,1.1.55.33,1.2.5,1.96.5s1.44-.17,2.01-.5c.54-.28.97-.65,1.29-1.1.42-.47.71-1.1.86-1.86.15-.77.22-2.24.22-4.41s-.07-3.65-.22-4.44c-.16-.75-.44-1.36-.86-1.83-.32-.45-.75-.83-1.29-1.14-.57-.29-1.24-.45-2.01-.47-.76.02-1.42.18-1.96.47-.56.3-1.01.68-1.35,1.14-.42.47-.7,1.08-.84,1.83-.16.79-.23,2.27-.23,4.44Z"/>
    <path class="cls-1" d="M122.04,55.45c1.7,1.44,3.72,2.17,6.06,2.2,2.77-.04,4.18-1.06,4.22-3.07.02-1.64-.91-2.63-2.78-2.96-.86-.12-1.8-.26-2.82-.41-1.83-.31-3.23-1.01-4.19-2.1-.99-1.12-1.48-2.48-1.48-4.08,0-1.93.62-3.48,1.86-4.66,1.2-1.17,2.9-1.76,5.1-1.78,2.65.06,4.96.82,6.92,2.28l-1.8,2.74c-1.6-1.09-3.36-1.66-5.29-1.7-.99,0-1.82.26-2.49.77-.69.54-1.05,1.33-1.07,2.39,0,.63.24,1.21.72,1.72.48.52,1.24.89,2.3,1.09.58.1,1.38.22,2.4.35,2,.28,3.48,1.02,4.43,2.22.95,1.18,1.42,2.55,1.42,4.11-.11,4.21-2.6,6.35-7.49,6.41-3.16,0-5.87-1-8.14-3.01l2.12-2.51Z"/>
    <path class="cls-1" d="M143.15,41.72h-5.85v-2.96h14.93v2.96h-5.85v19.07h-3.23v-19.07Z"/>
    <path class="cls-1" d="M154.99,38.77h3.23v18.88h10.4v3.14h-13.63v-22.03Z"/>
    <path class="cls-1" d="M172.2,38.77h3.23v22.03h-3.23v-22.03Z"/>
    <path class="cls-1" d="M180.18,38.77h3.04l9.66,15.66h.06v-15.66h3.23v22.03h-3.06l-9.65-15.66h-.06v15.66h-3.23v-22.03Z"/>
    <path class="cls-1" d="M201.34,38.77h13.63v3.14h-10.4v6.3h8.88v2.96h-8.88v6.48h10.4v3.14h-13.63v-22.03Z"/>
  </g>
  <path class="cls-1" d="M266.02,87.06H12.02V11.99h254v75.07ZM15.02,84.06h248V14.99H15.02v69.07Z"/>
</svg>