<?xml version="1.0" encoding="UTF-8"?>
<svg id="Layer_1" data-name="Layer 1" xmlns="http://www.w3.org/2000/svg" viewBox="0 0 180.35 180.35">
  <defs>
    <style>
      .cls-1 {
        fill: red;
      }

      .cls-2 {
        fill: #742df4;
      }
    </style>
  </defs>
  <path class="cls-2" d="M89.16,178.02C40.1,178.02.2,138.11.2,89.06S40.1.1,89.16.1s88.96,39.91,88.96,88.96-39.91,88.96-88.96,88.96ZM89.16,8.83C44.92,8.83,8.93,44.82,8.93,89.06s35.99,80.23,80.23,80.23,80.23-35.99,80.23-80.23S133.4,8.83,89.16,8.83Z"/>
  <path class="cls-1" d="M89.16,178.02C40.1,178.02.2,138.11.2,89.06S40.1.1,89.16.1s88.96,39.91,88.96,88.96-39.91,88.96-88.96,88.96ZM89.16,8.83C44.92,8.83,8.93,44.82,8.93,89.06s35.99,80.23,80.23,80.23,80.23-35.99,80.23-80.23S133.4,8.83,89.16,8.83Z"/>
  <path class="cls-2" d="M89.16,178.02C40.1,178.02.2,138.11.2,89.06S40.1.1,89.16.1s88.96,39.91,88.96,88.96-39.91,88.96-88.96,88.96ZM89.16,8.83C44.92,8.83,8.93,44.82,8.93,89.06s35.99,80.23,80.23,80.23,80.23-35.99,80.23-80.23S133.4,8.83,89.16,8.83Z"/>
  <path class="cls-2" d="M27.5,86.4v64.79l36.62,22.91-3.95-30.35s-20.86-12.75-23.98-27.62c-3.12-14.87-8.7-29.73-8.7-29.73Z"/>
  <path class="cls-2" d="M150.82,86.84v64.79s-36.62,22.91-36.62,22.91l3.95-30.35s20.86-12.75,23.98-27.62,8.7-29.73,8.7-29.73Z"/>
  <path class="cls-2" d="M89.16,150.72c-34,0-61.66-27.66-61.66-61.66s27.66-61.66,61.66-61.66,61.66,27.66,61.66,61.66-27.66,61.66-61.66,61.66ZM89.16,33.45c-30.66,0-55.61,24.95-55.61,55.61s24.95,55.61,55.61,55.61,55.61-24.95,55.61-55.61-24.95-55.61-55.61-55.61Z"/>
  <path class="cls-2" d="M89.16,147.69c-32.33,0-58.63-26.3-58.63-58.63s26.3-58.63,58.63-58.63,58.63,26.3,58.63,58.63-26.3,58.63-58.63,58.63ZM89.16,36.18c-29.16,0-52.88,23.72-52.88,52.88s23.72,52.88,52.88,52.88,52.88-23.72,52.88-52.88-23.72-52.88-52.88-52.88Z"/>
  <path class="cls-2" d="M113.4,86.84c.07.73.11,1.47.11,2.22,0,13.45-10.9,24.35-24.35,24.35s-24.35-10.9-24.35-24.35c0-.75.05-1.49.11-2.22h-10.2v79.51l34.44,7.31,34.44-7.31v-79.51h-10.2Z"/>
  <path class="cls-2" d="M89.16,54.62c-19.02,0-34.44,15.42-34.44,34.44s15.42,34.44,34.44,34.44,34.44-15.42,34.44-34.44-15.42-34.44-34.44-34.44ZM89.16,113.41c-13.45,0-24.35-10.9-24.35-24.35s10.9-24.35,24.35-24.35,24.35,10.9,24.35,24.35-10.9,24.35-24.35,24.35Z"/>
</svg>